<svg width="24" height="24" viewBox="0 0 24 24" fill="none" xmlns="http://www.w3.org/2000/svg">
<g filter="url(#filter0_i_8647_20205)">
<g clip-path="url(#clip0_8647_20205)">
<foreignObject x="-6" y="-6" width="36" height="57"><div xmlns="http://www.w3.org/1999/xhtml" style="backdrop-filter:blur(4.5px);clip-path:url(#bgblur_1_8647_20205_clip_path);height:100%;width:100%"></div></foreignObject><g filter="url(#filter1_d_8647_20205)" data-figma-bg-blur-radius="9">
<rect x="3" y="3" width="18" height="18" rx="9" fill="#F8F8F8" fill-opacity="0.01" shape-rendering="crispEdges"/>
<rect x="3" y="3" width="18" height="18" rx="9" fill="#121212" fill-opacity="0.3" shape-rendering="crispEdges"/>
<rect x="3.5625" y="3.5625" width="16.875" height="16.875" rx="8.4375" stroke="url(#paint0_linear_8647_20205)" stroke-opacity="0.25" stroke-width="1.125" shape-rendering="crispEdges"/>
<path d="M13.3228 15.1571L12.8329 16.1994C12.6446 16.6002 12.0477 16.6002 11.8594 16.1994L11.3695 15.1571C10.9335 14.2293 10.1488 13.4909 9.17001 13.0872L7.82153 12.5311C7.39282 12.3543 7.39282 11.7749 7.82153 11.5981L9.12789 11.0593C10.1319 10.6454 10.9307 9.87952 11.3592 8.92013L11.8555 7.80923C12.0396 7.39692 12.6527 7.39692 12.8369 7.80923L13.3331 8.92013C13.7617 9.87947 14.5605 10.6453 15.5645 11.0593L16.8708 11.5981C17.2995 11.7749 17.2995 12.3543 16.8708 12.5311L15.5223 13.0872C14.5435 13.4909 13.7587 14.2293 13.3228 15.1571Z" fill="url(#paint1_linear_8647_20205)"/>
</g>
</g>
<rect x="0.375" y="0.375" width="23.25" height="23.25" rx="11.625" stroke="#F8F8F8" stroke-opacity="0.08" stroke-width="0.75"/>
</g>
<defs>
<filter id="filter0_i_8647_20205" x="0" y="0" width="24" height="24" filterUnits="userSpaceOnUse" color-interpolation-filters="sRGB">
<feFlood flood-opacity="0" result="BackgroundImageFix"/>
<feBlend mode="normal" in="SourceGraphic" in2="BackgroundImageFix" result="shape"/>
<feColorMatrix in="SourceAlpha" type="matrix" values="0 0 0 0 0 0 0 0 0 0 0 0 0 0 0 0 0 0 127 0" result="hardAlpha"/>
<feOffset/>
<feGaussianBlur stdDeviation="3"/>
<feComposite in2="hardAlpha" operator="arithmetic" k2="-1" k3="1"/>
<feColorMatrix type="matrix" values="0 0 0 0 0.972549 0 0 0 0 0.972549 0 0 0 0 0.972549 0 0 0 0.2 0"/>
<feBlend mode="normal" in2="shape" result="effect1_innerShadow_8647_20205"/>
</filter>
<filter id="filter1_d_8647_20205" x="-6" y="-6" width="36" height="57" filterUnits="userSpaceOnUse" color-interpolation-filters="sRGB">
<feFlood flood-opacity="0" result="BackgroundImageFix"/>
<feColorMatrix in="SourceAlpha" type="matrix" values="0 0 0 0 0 0 0 0 0 0 0 0 0 0 0 0 0 0 127 0" result="hardAlpha"/>
<feMorphology radius="12" operator="erode" in="SourceAlpha" result="effect1_dropShadow_8647_20205"/>
<feOffset dy="24"/>
<feGaussianBlur stdDeviation="9"/>
<feComposite in2="hardAlpha" operator="out"/>
<feColorMatrix type="matrix" values="0 0 0 0 0 0 0 0 0 0 0 0 0 0 0 0 0 0 0.4 0"/>
<feBlend mode="multiply" in2="BackgroundImageFix" result="effect1_dropShadow_8647_20205"/>
<feBlend mode="normal" in="SourceGraphic" in2="effect1_dropShadow_8647_20205" result="shape"/>
</filter>
<clipPath id="bgblur_1_8647_20205_clip_path" transform="translate(6 6)"><rect x="3" y="3" width="18" height="18" rx="9"/>
</clipPath><linearGradient id="paint0_linear_8647_20205" x1="12" y1="3" x2="19.8304" y2="22.7662" gradientUnits="userSpaceOnUse">
<stop stop-color="white" stop-opacity="0.4"/>
<stop offset="0.4" stop-color="white" stop-opacity="0.01"/>
<stop offset="0.6" stop-color="white" stop-opacity="0.01"/>
<stop offset="1" stop-color="white" stop-opacity="0.1"/>
</linearGradient>
<linearGradient id="paint1_linear_8647_20205" x1="7.5" y1="12" x2="17.1923" y2="12" gradientUnits="userSpaceOnUse">
<stop stop-color="#741AB2"/>
<stop offset="1" stop-color="#9B35E2"/>
</linearGradient>
<clipPath id="clip0_8647_20205">
<rect width="24" height="24" rx="12" fill="white"/>
</clipPath>
</defs>
</svg>
