<svg width="33" height="26" viewBox="0 0 33 26" fill="none" xmlns="http://www.w3.org/2000/svg">
<g clip-path="url(#clip0_1400_4296)">
<path d="M12.8755 14.3992C12.9918 12.3235 14.0082 10.4948 15.5417 9.19847C17.0455 7.92522 19.0695 7.14697 21.278 7.14697C23.4842 7.14697 25.5083 7.92522 27.0132 9.19847C28.5455 10.4947 29.562 12.3235 29.6795 14.397C29.7957 16.5297 28.9385 18.511 27.4347 19.9796C25.9013 21.4735 23.7202 22.4108 21.278 22.4108C18.8357 22.4108 16.6503 21.4735 15.118 19.9796C13.6131 18.5108 12.758 16.5296 12.8755 14.3992Z" fill="white"/>
<path d="M16.9674 14.5847C17.027 13.5197 17.5487 12.5813 18.3354 11.9162C19.107 11.2629 20.1455 10.8635 21.2788 10.8635C22.4108 10.8635 23.4494 11.2629 24.2215 11.9162C25.0078 12.5813 25.5293 13.5197 25.5895 14.5837C25.6493 15.6779 25.2095 16.6945 24.4378 17.448C23.651 18.2145 22.5319 18.6955 21.2788 18.6955C20.0257 18.6955 18.9043 18.2145 18.118 17.448C17.3459 16.6945 16.9072 15.6779 16.9674 14.5847Z" fill="#265787"/>
<path d="M10.1231 16.7725C10.1306 17.19 10.2638 18.0018 10.4636 18.6355C10.8835 19.9771 11.5958 21.2184 12.5869 22.3121C13.604 23.4365 14.8564 24.3396 16.3031 24.9807C17.8236 25.6541 19.4711 25.9972 21.1824 25.9945C22.8909 25.9921 24.5385 25.6423 26.059 24.9638C27.5056 24.3164 28.7569 23.4094 29.7724 22.2845C30.7629 21.1861 31.474 19.9428 31.8951 18.6011C32.1068 17.9233 32.2405 17.2353 32.2941 16.5449C32.3466 15.8638 32.3245 15.1791 32.2281 14.5029C32.0396 13.1765 31.5806 11.932 30.874 10.7975C30.2278 9.755 29.3948 8.84238 28.4041 8.07413L28.4064 8.0725L18.4101 0.396877C18.401 0.390127 18.3936 0.382877 18.384 0.376627C17.7283 -0.126873 16.6253 -0.125123 15.904 0.379377C15.1748 0.889627 15.0913 1.7335 15.7403 2.26563L15.7375 2.2685L19.9069 5.659L7.19901 5.6725H7.18201C6.13164 5.67375 5.12201 6.36288 4.92201 7.23375C4.71664 8.121 5.43014 8.857 6.52226 8.861L6.52051 8.86488L12.9618 8.85238L1.46776 17.675C1.45314 17.6858 1.43726 17.697 1.42376 17.7078C0.339514 18.538 -0.0109862 19.9186 0.671889 20.7923C1.36501 21.6808 2.83876 21.6824 3.93426 20.7974L10.2073 15.6635C10.2073 15.6635 10.1158 16.3565 10.1231 16.7725ZM26.2425 19.0933C24.95 20.4101 23.1404 21.1568 21.1825 21.1608C19.2216 21.1641 17.4121 20.4241 16.1196 19.1096C15.488 18.469 15.0241 17.7319 14.7379 16.9468C14.4564 16.1741 14.3482 15.3491 14.4208 14.53C14.489 13.7223 14.7295 12.9519 15.1133 12.2548C15.4903 11.5696 16.0095 10.9504 16.6508 10.4266C17.907 9.40288 19.5066 8.8485 21.1795 8.84625C22.8543 8.844 24.4526 9.39325 25.7103 10.4138C26.3503 10.9351 26.869 11.5521 27.246 12.2363C27.6348 12.9371 27.8717 13.7119 27.9414 14.5103C28.0129 15.3288 27.9043 16.1532 27.623 16.9252C27.3363 17.7127 26.874 18.4499 26.2425 19.0933Z" fill="#EA7600"/>
</g>
<defs>
<clipPath id="clip0_1400_4296">
<rect width="32" height="26" fill="white" transform="translate(0.321777)"/>
</clipPath>
</defs>
</svg>
