<svg width="198" height="57" viewBox="0 0 198 57" fill="none" xmlns="http://www.w3.org/2000/svg">
<path d="M141.096 23.3605L141.148 15.2452C141.148 15.0756 141.212 14.9164 141.34 14.7696C141.469 14.6237 141.624 14.5376 141.807 14.5138H145.629C145.787 14.5042 145.937 14.5552 146.077 14.6712C146.216 14.7872 146.286 14.9297 146.286 15.1011V16.7827H152.042C152.211 16.7827 152.364 16.846 152.499 16.9743C152.633 17.1026 152.7 17.2582 152.7 17.4411V19.999C152.7 20.1572 152.634 20.3067 152.499 20.4465C152.364 20.5862 152.211 20.6557 152.042 20.6557H146.286V22.5562C146.286 22.9096 146.457 23.2172 146.798 23.4791C147.139 23.7411 147.577 23.8721 148.114 23.8721C149.356 23.8721 150.72 23.4818 152.207 22.703C152.304 22.63 152.423 22.6238 152.564 22.6836C152.703 22.7452 152.773 22.8594 152.773 23.0308V25.8446C152.773 26.2586 152.584 26.576 152.207 26.7949C151.622 27.1236 150.933 27.3944 150.142 27.6088C149.351 27.8216 148.571 27.9288 147.803 27.9288C145.987 27.9288 144.416 27.4621 143.087 26.5311C141.76 25.5985 141.095 24.5419 141.095 23.3605H141.096Z" fill="white"/>
<path d="M81.0597 27.127L85.8408 15.5747C85.9015 15.4288 86.0237 15.289 86.2056 15.1545C86.3885 15.0332 86.5704 14.9717 86.7533 14.9717H91.1335C91.2917 14.9717 91.4622 15.0323 91.6442 15.1545C91.8385 15.2758 91.9659 15.4165 92.0274 15.5747L96.6996 27.1446C96.7242 27.2052 96.7365 27.2721 96.7365 27.345C96.7365 27.4663 96.6934 27.5639 96.609 27.6369C96.5238 27.7098 96.4148 27.7467 96.2803 27.7467H92.5021C92.3439 27.7467 92.1734 27.686 91.9914 27.5639C91.8094 27.4417 91.6873 27.2966 91.6266 27.1261L91.0605 25.4841H86.5898L86.0061 27.1261C85.9578 27.2597 85.8417 27.3968 85.6597 27.5366C85.4769 27.6764 85.3011 27.7467 85.1305 27.7467H81.4623C81.3164 27.7467 81.2065 27.7098 81.1335 27.6369C81.0483 27.5393 81.0061 27.4425 81.0061 27.345C81.0052 27.2843 81.0228 27.2114 81.0597 27.127ZM87.6657 22.4549H90.0382L88.87 19.0601L87.6657 22.4549Z" fill="white"/>
<path d="M95.5137 21.3597C95.5137 19.3766 96.2134 17.7856 97.6128 16.5875C99.0114 15.3893 100.952 14.7898 103.435 14.7898C104.311 14.7898 105.201 14.8381 106.108 14.9357C107.014 15.0333 107.701 15.1274 108.17 15.2188C108.639 15.3102 108.945 15.3796 109.091 15.4289C109.274 15.4895 109.423 15.5959 109.538 15.748C109.654 15.9 109.712 16.0732 109.712 16.2684V18.8413C109.712 18.9995 109.647 19.1305 109.52 19.2333C109.393 19.3371 109.25 19.3643 109.091 19.3151C108.714 19.1938 108.088 19.0532 107.212 18.8949C106.336 18.7367 105.454 18.6575 104.566 18.6575C101.986 18.6575 100.697 19.5577 100.697 21.3588C100.697 22.1614 100.962 22.8066 101.491 23.2936C102.02 23.7806 102.778 24.0232 103.763 24.0232C104.64 24.0232 105.479 23.9687 106.282 23.8588V23.0571H104.42C104.274 23.0571 104.129 22.9903 103.983 22.8567C103.836 22.7231 103.763 22.571 103.763 22.4005V20.776C103.763 20.6301 103.83 20.4842 103.964 20.3383C104.098 20.1924 104.25 20.1194 104.42 20.1194H109.64C109.811 20.1194 109.962 20.1836 110.096 20.311C110.23 20.4385 110.296 20.5941 110.296 20.776V25.2653C110.296 25.7153 110.113 26.0564 109.749 26.2876C108.775 26.8836 107.866 27.3064 107.02 27.5561C106.175 27.8048 105.088 27.9305 103.762 27.9305C101.256 27.9305 99.2548 27.3248 97.7587 26.1144C96.2618 24.9031 95.5137 23.3182 95.5137 21.3597Z" fill="white"/>
<path d="M110.872 21.3597C110.872 19.3889 111.596 17.8014 113.044 16.5962C114.492 15.392 116.395 14.7898 118.756 14.7898C121.117 14.7898 122.918 15.3278 124.158 16.4046C125.399 17.4814 126.02 19.0478 126.02 21.1039V21.8704C126.02 22.0287 125.949 22.1772 125.81 22.3179C125.67 22.4576 125.52 22.5279 125.362 22.5279H116.31C116.797 23.5011 118.002 23.988 119.925 23.988C120.545 23.988 121.205 23.9423 121.905 23.8509C122.604 23.7595 123.139 23.6716 123.511 23.5863C123.882 23.5011 124.196 23.4158 124.45 23.3305C124.596 23.2822 124.736 23.3094 124.871 23.4123C125.004 23.516 125.071 23.6461 125.071 23.8043V26.4503C125.071 26.6445 125.014 26.8185 124.898 26.9706C124.782 27.1227 124.633 27.2291 124.45 27.2897C124.305 27.3381 123.997 27.4084 123.53 27.4998C123.061 27.5912 122.374 27.6853 121.467 27.7829C120.561 27.8795 119.67 27.9288 118.794 27.9288C116.313 27.9288 114.372 27.3293 112.972 26.1312C111.572 24.9339 110.872 23.3428 110.872 21.3597ZM116.238 20.0455H121.092V19.7352C121.092 19.4311 120.869 19.1577 120.425 18.9143C119.981 18.6708 119.424 18.5495 118.756 18.5495C117.43 18.5495 116.59 19.0478 116.238 20.0455Z" fill="white"/>
<path d="M81.2054 42.242V30.7812C81.2054 30.6106 81.2696 30.4586 81.3971 30.3249C81.5245 30.1913 81.6801 30.1245 81.8621 30.1245H85.7308C85.889 30.1245 86.0375 30.1913 86.1782 30.3249C86.3179 30.4586 86.3883 30.6106 86.3883 30.7812V38.9931H88.6149L91.608 38.9017C91.7663 38.9017 91.9148 38.9658 92.0554 39.0933C92.1952 39.2208 92.2655 39.3702 92.2655 39.5407V42.242C92.2655 42.4002 92.1987 42.5488 92.0651 42.6895C91.9306 42.8292 91.7794 42.8996 91.6088 42.8996H81.8621C81.6916 42.8996 81.5395 42.8354 81.4059 42.7079C81.2723 42.5796 81.2054 42.4249 81.2054 42.242Z" fill="white"/>
<path d="M93.1913 37.3151V30.7821C93.1913 30.6116 93.2554 30.4595 93.3829 30.3259C93.5104 30.1922 93.6659 30.1255 93.8479 30.1255H97.7895C97.9478 30.1255 98.0963 30.1922 98.2369 30.3259C98.3767 30.4595 98.447 30.6116 98.447 30.7821V37.3335C98.447 37.8812 98.5841 38.3128 98.8575 38.6293C99.1309 38.9457 99.5177 39.1039 100.016 39.1039C100.514 39.1039 100.901 38.9457 101.175 38.6293C101.448 38.3128 101.585 37.8812 101.585 37.3335V30.7821C101.585 30.6116 101.649 30.4595 101.777 30.3259C101.904 30.1922 102.06 30.1255 102.242 30.1255H106.184C106.342 30.1255 106.49 30.1922 106.631 30.3259C106.771 30.4595 106.841 30.6116 106.841 30.7821V37.3151C106.841 39.031 106.214 40.4207 104.961 41.4853C103.709 42.5489 102.061 43.0816 100.016 43.0816C97.9723 43.0816 96.3233 42.5489 95.0707 41.4844C93.818 40.4198 93.1913 39.0301 93.1913 37.3151Z" fill="white"/>
<path d="M121.419 35.709V42.2419C121.419 42.4125 121.355 42.5646 121.227 42.6982C121.099 42.8318 120.944 42.8986 120.762 42.8986H116.821C116.662 42.8986 116.514 42.8318 116.374 42.6982C116.234 42.5646 116.163 42.4125 116.163 42.2419V35.6905C116.163 35.1429 116.026 34.7113 115.753 34.3948C115.479 34.0784 115.093 33.9201 114.594 33.9201C114.096 33.9201 113.709 34.0784 113.435 34.3948C113.162 34.7113 113.025 35.1429 113.025 35.6905V42.2419C113.025 42.4125 112.961 42.5646 112.833 42.6982C112.706 42.8318 112.55 42.8986 112.369 42.8986H108.427C108.269 42.8986 108.12 42.8318 107.979 42.6982C107.84 42.5646 107.769 42.4125 107.769 42.2419V35.709C107.769 33.9931 108.396 32.6033 109.649 31.5388C110.902 30.4743 112.55 29.9417 114.594 29.9417C116.638 29.9417 118.287 30.4743 119.54 31.5388C120.792 32.6033 121.419 33.9931 121.419 35.709Z" fill="white"/>
<path d="M140.327 20.5571V27.0902C140.327 27.2607 140.263 27.4128 140.135 27.5464C140.008 27.68 139.853 27.7468 139.671 27.7468H135.729C135.57 27.7468 135.422 27.68 135.282 27.5464C135.142 27.4128 135.071 27.2607 135.071 27.0902V20.5387C135.071 19.991 134.934 19.5594 134.661 19.243C134.387 18.9266 134.001 18.7683 133.502 18.7683C133.004 18.7683 132.617 18.9266 132.343 19.243C132.07 19.5594 131.933 19.991 131.933 20.5387V27.0902C131.933 27.2607 131.869 27.4128 131.741 27.5464C131.614 27.68 131.459 27.7468 131.277 27.7468H127.335C127.177 27.7468 127.028 27.68 126.887 27.5464C126.748 27.4128 126.677 27.2607 126.677 27.0902V20.5571C126.677 18.8413 127.304 17.4515 128.557 16.387C129.81 15.3225 131.459 14.7898 133.502 14.7898C135.546 14.7898 137.195 15.3225 138.448 16.387C139.701 17.4515 140.327 18.8413 140.327 20.5571Z" fill="white"/>
<path d="M122.465 39.0116C122.465 37.9163 122.986 36.9555 124.025 36.1283C125.065 35.3011 126.261 34.8871 127.611 34.8871C128.305 34.8871 128.895 34.9416 129.382 35.0515C129.868 35.1613 130.374 35.3925 130.897 35.745V35.0154C130.897 34.6014 130.647 34.2612 130.148 33.9931C129.649 33.7259 129.005 33.5914 128.214 33.5914C126.839 33.5914 125.537 33.914 124.308 34.5583C124.211 34.619 124.096 34.619 123.962 34.5583C123.827 34.4977 123.761 34.3817 123.761 34.212V31.9493C123.761 31.4993 123.951 31.1828 124.327 31C125.849 30.2941 127.412 29.9417 129.018 29.9417C130.868 29.9417 132.476 30.4066 133.845 31.3375C135.213 32.2684 135.898 33.3233 135.898 34.5038V42.242C135.898 42.4125 135.834 42.5646 135.707 42.6982C135.579 42.8318 135.424 42.8986 135.242 42.8986H131.701C131.531 42.8986 131.378 42.8406 131.245 42.7254C131.111 42.6103 131.032 42.4608 131.008 42.278V42.1145C129.791 42.7105 128.562 43.0085 127.321 43.0085C125.946 43.0085 124.793 42.6709 123.863 41.9958C122.931 41.3208 122.465 40.3257 122.465 39.0116ZM128.114 38.209C127.791 38.4032 127.63 38.6713 127.63 39.0116C127.63 39.3526 127.788 39.6137 128.105 39.7965C128.421 39.9794 128.823 40.0699 129.309 40.0699C129.868 40.0699 130.397 39.9723 130.897 39.7781V38.2995C130.374 38.0437 129.845 37.9163 129.309 37.9163C128.834 37.9171 128.435 38.0138 128.114 38.209Z" fill="white"/>
<path d="M136.944 42.2424V30.7815C136.944 30.611 137.007 30.4589 137.135 30.3253C137.262 30.1917 137.418 30.1249 137.6 30.1249C138.294 30.1249 139.462 30.1065 141.104 30.0704C142.746 30.0335 144.158 30.0159 145.338 30.0159C147.139 30.0159 148.648 30.4299 149.864 31.2571C151.081 32.0842 151.69 33.1066 151.69 34.3231C151.69 35.2233 151.336 36.0329 150.631 36.7502C149.925 37.4684 149.013 37.9729 147.893 38.2648L151.27 42.3892C151.38 42.5105 151.414 42.6265 151.37 42.7355C151.327 42.8454 151.215 42.8999 151.033 42.8999H145.594C145.423 42.8999 145.245 42.8419 145.056 42.7267C144.867 42.6116 144.737 42.4683 144.664 42.2978L142.948 38.5197H142.054V42.2424C142.054 42.4006 141.987 42.5492 141.854 42.6898C141.719 42.8296 141.568 42.8999 141.397 42.8999H137.602C137.443 42.8999 137.294 42.8331 137.155 42.6995C137.013 42.565 136.944 42.4129 136.944 42.2424ZM142.054 35.0703C142.065 35.0703 142.562 35.0853 143.54 35.116C144.52 35.1468 145.247 35.1617 145.722 35.1617C145.905 35.1617 146.059 35.1011 146.186 34.9789C146.314 34.8576 146.378 34.7117 146.378 34.5411C146.378 34.3706 146.308 34.222 146.168 34.0937C146.029 33.9662 145.855 33.9021 145.647 33.9021C145.185 33.9021 144.479 33.9171 143.531 33.9478C142.581 33.9786 142.09 33.9935 142.052 33.9935V35.0703H142.054Z" fill="white"/>
<path fill-rule="evenodd" clip-rule="evenodd" d="M72.5727 16.7388C72.5733 13.5576 68.9915 11.6936 66.3865 13.5195L46.6292 27.3676C44.2141 29.0604 44.4545 32.7112 47.0707 34.0726L51.3053 36.2763C52.3527 36.8213 53.3579 36.8542 54.5252 36.3499L61.597 32.0116C62.6931 31.274 63.9618 30.2477 63.7435 28.9447L63.4278 27.0596C63.3968 26.8747 63.6049 26.7446 63.7576 26.8534L65.6762 28.221C66.5672 28.8562 67.1172 28.603 68.0378 28.1791L68.0378 28.1791L68.0378 28.1791L68.0378 28.1791L68.0386 28.1787C68.1259 28.1386 68.2165 28.0969 68.311 28.0543L72.0906 26.2565C72.384 26.117 72.5709 25.8211 72.571 25.4962L72.5727 16.7388ZM60.7817 35.6324C60.7401 34.9674 61.1368 34.3636 61.7459 34.0937L63.0039 33.5362L63.0396 33.5247C64.0568 33.1978 65.1637 32.842 66.024 33.4718L67.8717 34.7266C68.0179 34.8336 68.2221 34.7181 68.2057 34.5376L68.0112 32.3951C67.9158 31.3474 68.3154 30.553 69.0914 29.8427L72.2232 27.1655C72.3598 27.0487 72.5706 27.1458 72.5705 27.3255L72.5679 40.8659C72.5673 43.8152 69.4394 45.7131 66.8232 44.3517L63.0828 42.4052C61.8448 41.7609 61.0682 40.4812 61.0685 39.0856C61.0163 38.4515 60.9689 37.911 60.9274 37.4383C60.8631 36.7053 60.8131 36.1353 60.7817 35.6324ZM66.9104 19.7223C66.6115 19.6323 66.1847 19.5009 65.7867 19.3759C65.6398 19.3294 65.4831 19.4113 65.4362 19.5593C65.3911 19.7019 65.4674 19.8548 65.6067 19.9055L65.6182 19.9097C65.6197 19.9099 65.6819 19.9292 65.7803 19.9599L65.7805 19.96L65.7806 19.96C65.9292 20.0063 66.1602 20.0784 66.3903 20.149L66.4486 20.1666L66.4489 20.1667C66.6476 20.2268 66.8085 20.2754 66.9281 20.3098L66.9877 20.3272C67.1872 20.3855 67.2818 20.4131 67.3789 20.3889C67.4361 20.3746 67.4992 20.3079 67.5383 20.2611C67.6172 20.1679 67.6088 20.0563 67.5657 19.939C67.5113 19.7909 67.306 19.1052 67.1259 18.4834C67.0828 18.3357 66.9281 18.2503 66.7795 18.2933C66.6319 18.3365 66.5465 18.4914 66.5893 18.64C66.5899 18.6413 66.6053 18.694 66.6301 18.7788C66.6726 18.9237 66.7425 19.1626 66.8131 19.3998C66.8494 19.5221 66.8815 19.6288 66.9104 19.7223ZM69.8544 20.7985C69.7136 20.7723 69.6064 20.6456 69.605 20.4921L69.6047 20.4353C69.604 20.2993 69.6021 19.9395 69.6017 19.582C69.6015 19.3162 69.6023 19.1045 69.604 18.9516C69.605 18.8572 69.6063 18.7866 69.6079 18.7355L69.608 18.7343C69.6116 18.6298 69.6172 18.4727 69.7767 18.383C69.8771 18.3259 69.9999 18.3308 70.0942 18.3956C70.2003 18.4684 70.219 18.5951 70.2242 18.7213C70.2242 18.7658 70.2237 18.8616 70.223 18.9901L70.223 18.9909V18.9911C70.221 19.3618 70.2175 20.0047 70.2207 20.4811C70.2219 20.6566 70.0847 20.8014 69.9147 20.8048C69.8936 20.8041 69.8734 20.802 69.8544 20.7985ZM64.8264 21.4811C64.9096 22.0028 65.4191 22.5894 66.1494 23.0222C66.2273 23.0684 66.3075 23.1131 66.3903 23.1549C67.3504 23.6471 68.3976 23.7527 69.2633 23.444C69.4142 23.3902 69.516 23.2184 69.4907 23.0602C69.4655 22.9019 69.3228 22.8174 69.1719 22.8712C68.4396 23.1324 67.5345 23.0333 66.6887 22.5995C65.8978 22.1937 65.4278 21.6313 65.3727 21.2862C65.3474 21.128 65.2047 21.0435 65.0539 21.0973C64.9029 21.1511 64.8011 21.3228 64.8264 21.4811Z" fill="white"/>
</svg>
