<svg width="32" height="32" viewBox="0 0 32 32" fill="none" xmlns="http://www.w3.org/2000/svg">
<path d="M28.0001 8.41249C27.9932 7.81068 27.8651 7.21643 27.6232 6.66531C27.3814 6.11418 27.0308 5.61751 26.5926 5.20499C24.8426 3.54499 22.0026 3.60749 20.2651 5.34624L17.3501 8.27499C16.7798 7.75517 16.031 7.47512 15.2596 7.49304C14.4881 7.51097 13.7532 7.82549 13.2076 8.37124L12.5826 8.99624C12.3967 9.18199 12.2491 9.40256 12.1485 9.64536C12.0478 9.88816 11.996 10.1484 11.996 10.4112C11.996 10.6741 12.0478 10.9343 12.1485 11.1771C12.2491 11.4199 12.3967 11.6405 12.5826 11.8262L12.8326 12.0837L6.45761 18.4587C5.84398 19.0676 5.39981 19.826 5.16897 20.659C4.93813 21.4921 4.92861 22.3709 5.14136 23.2087L4.14136 25.51C4.00164 25.826 3.96114 26.1769 4.02519 26.5164C4.08925 26.8559 4.25486 27.1679 4.50011 27.4112C4.78323 27.6971 5.14644 27.8903 5.54171 27.9653C5.93698 28.0403 6.34571 27.9935 6.71386 27.8312L8.9051 26.875C9.72771 27.0608 10.584 27.035 11.3939 26.8C12.2039 26.565 12.941 26.1285 13.5364 25.5312L19.9114 19.1562L20.1689 19.4137C20.5439 19.7885 21.0524 19.9991 21.5826 19.9991C22.1128 19.9991 22.6213 19.7885 22.9964 19.4137L23.6214 18.7887C24.168 18.2424 24.4828 17.5062 24.5 16.7336C24.5173 15.9609 24.2356 15.2114 23.7139 14.6412L26.6826 11.6575C27.1094 11.2332 27.4461 10.727 27.6725 10.1694C27.8989 9.61182 28.0103 9.01422 28.0001 8.41249ZM17.2501 19H8.75885L14.2589 13.5L18.5014 17.75L17.2501 19Z" fill="url(#paint0_linear_2015_1106)"/>
<defs>
<linearGradient id="paint0_linear_2015_1106" x1="3.99561" y1="16" x2="28.0007" y2="16" gradientUnits="userSpaceOnUse">
<stop stop-color="#581DE3"/>
<stop offset="1" stop-color="#726EFF"/>
</linearGradient>
</defs>
</svg>
