<svg width="32" height="32" viewBox="0 0 32 32" fill="none" xmlns="http://www.w3.org/2000/svg">
<path d="M6.66667 28C5.93333 28 5.30578 27.7391 4.784 27.2173C4.26222 26.6956 4.00089 26.0676 4 25.3333V8.70001C4 8.3889 4.05022 8.0889 4.15067 7.80001C4.25111 7.51112 4.40089 7.24445 4.6 7.00001L6.26667 4.96667C6.51111 4.65556 6.81644 4.41645 7.18267 4.24934C7.54889 4.08223 7.93244 3.99912 8.33333 4.00001H23.6667C24.0667 4.00001 24.4502 4.08356 24.8173 4.25067C25.1844 4.41778 25.4898 4.65645 25.7333 4.96667L27.4 7.00001C27.6 7.24445 27.7502 7.51112 27.8507 7.80001C27.9511 8.0889 28.0009 8.3889 28 8.70001V25.3333C28 26.0667 27.7391 26.6947 27.2173 27.2173C26.6956 27.74 26.0676 28.0009 25.3333 28H6.66667ZM7.2 8.00001H24.8L23.6667 6.66667H8.33333L7.2 8.00001ZM21.3333 10.6667H10.6667V19.1667C10.6667 19.6778 10.8778 20.0613 11.3 20.3173C11.7222 20.5733 12.1556 20.5898 12.6 20.3667L16 18.6667L19.4 20.3667C19.8444 20.5889 20.2778 20.572 20.7 20.316C21.1222 20.06 21.3333 19.6769 21.3333 19.1667V10.6667Z" fill="url(#paint0_linear_7511_46651)"/>
<defs>
<linearGradient id="paint0_linear_7511_46651" x1="4" y1="16" x2="28" y2="16" gradientUnits="userSpaceOnUse">
<stop stop-color="#581DE3"/>
<stop offset="1" stop-color="#726EFF"/>
</linearGradient>
</defs>
</svg>
