<svg width="17" height="16" viewBox="0 0 17 16" fill="none" xmlns="http://www.w3.org/2000/svg">
<path d="M13.4683 3.87109L10.7913 1.19141C10.6683 1.06836 10.5015 1 10.3265 1H10.1597V4.5H13.6597V4.3332C13.6597 4.16094 13.5913 3.99414 13.4683 3.87109ZM9.28467 4.71875V1H3.81592C3.45225 1 3.15967 1.29258 3.15967 1.65625V14.3438C3.15967 14.7074 3.45225 15 3.81592 15H13.0034C13.3671 15 13.6597 14.7074 13.6597 14.3438V5.375H9.94092C9.57998 5.375 9.28467 5.07969 9.28467 4.71875ZM4.90967 2.96875C4.90967 2.84844 5.00811 2.75 5.12842 2.75H7.31592C7.43623 2.75 7.53467 2.84844 7.53467 2.96875V3.40625C7.53467 3.52656 7.43623 3.625 7.31592 3.625H5.12842C5.00811 3.625 4.90967 3.52656 4.90967 3.40625V2.96875ZM4.90967 5.15625V4.71875C4.90967 4.59844 5.00811 4.5 5.12842 4.5H7.31592C7.43623 4.5 7.53467 4.59844 7.53467 4.71875V5.15625C7.53467 5.27656 7.43623 5.375 7.31592 5.375H5.12842C5.00811 5.375 4.90967 5.27656 4.90967 5.15625ZM8.84717 12.3723V13.0312C8.84717 13.1516 8.74873 13.25 8.62842 13.25H8.19092C8.07061 13.25 7.97217 13.1516 7.97217 13.0312V12.3668C7.66318 12.3504 7.3624 12.2437 7.11357 12.0551C7.00693 11.9758 7.00146 11.8145 7.09717 11.7242L7.41982 11.418C7.49639 11.3469 7.6085 11.3414 7.696 11.3988C7.80264 11.4645 7.92295 11.5 8.046 11.5H8.81436C8.99209 11.5 9.13701 11.3387 9.13701 11.1391C9.13701 10.975 9.03857 10.8328 8.89639 10.7918L7.66592 10.4227C7.15732 10.2695 6.80186 9.78281 6.80186 9.23594C6.80186 8.56602 7.32412 8.02188 7.96943 8.00273V7.34375C7.96943 7.22344 8.06787 7.125 8.18818 7.125H8.62568C8.746 7.125 8.84443 7.22344 8.84443 7.34375V8.0082C9.15342 8.02461 9.4542 8.13125 9.70303 8.31992C9.80967 8.39922 9.81514 8.56055 9.71943 8.65078L9.39678 8.95703C9.32022 9.02812 9.20811 9.03359 9.12061 8.97617C9.01396 8.91055 8.89365 8.875 8.77061 8.875H8.00225C7.82451 8.875 7.67959 9.03633 7.67959 9.23594C7.67959 9.4 7.77803 9.54219 7.92022 9.5832L9.15068 9.95234C9.65928 10.1055 10.0147 10.5922 10.0147 11.1391C10.0147 11.809 9.49248 12.3531 8.84717 12.3723Z" fill="url(#paint0_linear_2003_1463)"/>
<defs>
<linearGradient id="paint0_linear_2003_1463" x1="3.15967" y1="8" x2="13.6597" y2="8" gradientUnits="userSpaceOnUse">
<stop stop-color="#581DE3"/>
<stop offset="1" stop-color="#726EFF"/>
</linearGradient>
</defs>
</svg>
